<?xml version="1.0" encoding="UTF-8"?>
<svg id="Layer_1" data-name="Layer 1" xmlns="http://www.w3.org/2000/svg" xmlns:xlink="http://www.w3.org/1999/xlink" viewBox="0 0 2000 2000">
  <defs>
    <style>
      .cls-1 {
        fill: url(#linear-gradient-8);
      }

      .cls-2 {
        fill: url(#linear-gradient-7);
      }

      .cls-3 {
        fill: url(#linear-gradient-5);
      }

      .cls-4 {
        fill: url(#linear-gradient-6);
      }

      .cls-5 {
        fill: url(#linear-gradient-9);
      }

      .cls-6 {
        fill: url(#linear-gradient-4);
      }

      .cls-7 {
        fill: url(#linear-gradient-3);
      }

      .cls-8 {
        fill: url(#linear-gradient-2);
      }

      .cls-9 {
        fill: url(#linear-gradient);
      }

      .cls-10 {
        fill: url(#linear-gradient-43);
      }

      .cls-11 {
        fill: url(#linear-gradient-40);
      }

      .cls-12 {
        fill: url(#linear-gradient-41);
      }

      .cls-13 {
        fill: url(#linear-gradient-42);
      }

      .cls-14 {
        fill: url(#linear-gradient-49);
      }

      .cls-15 {
        fill: url(#linear-gradient-48);
      }

      .cls-16 {
        fill: url(#linear-gradient-45);
      }

      .cls-17 {
        fill: url(#linear-gradient-47);
      }

      .cls-18 {
        fill: url(#linear-gradient-44);
      }

      .cls-19 {
        fill: url(#linear-gradient-46);
      }

      .cls-20 {
        fill: url(#linear-gradient-10);
      }

      .cls-21 {
        fill: url(#linear-gradient-11);
      }

      .cls-22 {
        fill: url(#linear-gradient-12);
      }

      .cls-23 {
        fill: url(#linear-gradient-13);
      }

      .cls-24 {
        fill: url(#linear-gradient-19);
      }

      .cls-25 {
        fill: url(#linear-gradient-14);
      }

      .cls-26 {
        fill: url(#linear-gradient-21);
      }

      .cls-27 {
        fill: url(#linear-gradient-20);
      }

      .cls-28 {
        fill: url(#linear-gradient-22);
      }

      .cls-29 {
        fill: url(#linear-gradient-23);
      }

      .cls-30 {
        fill: url(#linear-gradient-28);
      }

      .cls-31 {
        fill: url(#linear-gradient-25);
      }

      .cls-32 {
        fill: url(#linear-gradient-32);
      }

      .cls-33 {
        fill: url(#linear-gradient-31);
      }

      .cls-34 {
        fill: url(#linear-gradient-33);
      }

      .cls-35 {
        fill: url(#linear-gradient-30);
      }

      .cls-36 {
        fill: url(#linear-gradient-15);
      }

      .cls-37 {
        fill: url(#linear-gradient-16);
      }

      .cls-38 {
        fill: url(#linear-gradient-17);
      }

      .cls-39 {
        fill: url(#linear-gradient-18);
      }

      .cls-40 {
        fill: url(#linear-gradient-35);
      }

      .cls-41 {
        fill: url(#linear-gradient-34);
      }

      .cls-42 {
        fill: url(#linear-gradient-36);
      }

      .cls-43 {
        fill: url(#linear-gradient-38);
      }

      .cls-44 {
        fill: url(#linear-gradient-27);
      }

      .cls-45 {
        fill: url(#linear-gradient-24);
      }

      .cls-46 {
        fill: url(#linear-gradient-26);
      }

      .cls-47 {
        fill: url(#linear-gradient-29);
      }

      .cls-48 {
        fill: url(#linear-gradient-37);
      }

      .cls-49 {
        fill: url(#linear-gradient-39);
      }

      .cls-50 {
        fill: url(#linear-gradient-57);
      }

      .cls-51 {
        fill: url(#linear-gradient-58);
      }

      .cls-52 {
        fill: url(#linear-gradient-59);
      }

      .cls-53 {
        fill: url(#linear-gradient-53);
      }

      .cls-54 {
        fill: url(#linear-gradient-54);
      }

      .cls-55 {
        fill: url(#linear-gradient-55);
      }

      .cls-56 {
        fill: url(#linear-gradient-56);
      }

      .cls-57 {
        fill: url(#linear-gradient-50);
      }

      .cls-58 {
        fill: url(#linear-gradient-51);
      }

      .cls-59 {
        fill: url(#linear-gradient-52);
      }

      .cls-60 {
        fill: url(#linear-gradient-63);
      }

      .cls-61 {
        fill: url(#linear-gradient-64);
      }

      .cls-62 {
        fill: url(#linear-gradient-60);
      }

      .cls-63 {
        fill: url(#linear-gradient-61);
      }

      .cls-64 {
        fill: url(#linear-gradient-62);
      }
    </style>
    <linearGradient id="linear-gradient" x1="163.2" y1="1009.29" x2="1787.95" y2="997.6" gradientUnits="userSpaceOnUse">
      <stop offset="0" stop-color="#04676a"/>
      <stop offset="1" stop-color="#99c22a"/>
    </linearGradient>
    <linearGradient id="linear-gradient-2" x1="163.31" y1="1024.6" x2="1788.06" y2="1012.91" xlink:href="#linear-gradient"/>
    <linearGradient id="linear-gradient-3" x1="163.18" y1="1007" x2="1787.94" y2="995.31" xlink:href="#linear-gradient"/>
    <linearGradient id="linear-gradient-4" x1="163.42" y1="1039.89" x2="1788.17" y2="1028.2" xlink:href="#linear-gradient"/>
    <linearGradient id="linear-gradient-5" x1="163.08" y1="993.55" x2="1787.84" y2="981.86" xlink:href="#linear-gradient"/>
    <linearGradient id="linear-gradient-6" x1="163.4" y1="1037.07" x2="1788.15" y2="1025.38" xlink:href="#linear-gradient"/>
    <linearGradient id="linear-gradient-7" x1="162.94" y1="974.07" x2="1787.7" y2="962.38" xlink:href="#linear-gradient"/>
    <linearGradient id="linear-gradient-8" x1="163.68" y1="1076.34" x2="1788.43" y2="1064.65" xlink:href="#linear-gradient"/>
    <linearGradient id="linear-gradient-9" x1="163.27" y1="1019.01" x2="1788.02" y2="1007.32" xlink:href="#linear-gradient"/>
    <linearGradient id="linear-gradient-10" x1="162.97" y1="977.72" x2="1787.73" y2="966.03" xlink:href="#linear-gradient"/>
    <linearGradient id="linear-gradient-11" x1="163.22" y1="1012.95" x2="1787.98" y2="1001.26" xlink:href="#linear-gradient"/>
    <linearGradient id="linear-gradient-12" x1="163.35" y1="1030.28" x2="1788.1" y2="1018.59" xlink:href="#linear-gradient"/>
    <linearGradient id="linear-gradient-13" x1="163.41" y1="1038.79" x2="1788.16" y2="1027.1" xlink:href="#linear-gradient"/>
    <linearGradient id="linear-gradient-14" x1="163" y1="982.49" x2="1787.76" y2="970.8" xlink:href="#linear-gradient"/>
    <linearGradient id="linear-gradient-15" x1="163.35" y1="1030.45" x2="1788.1" y2="1018.76" xlink:href="#linear-gradient"/>
    <linearGradient id="linear-gradient-16" x1="163.31" y1="1025.34" x2="1788.07" y2="1013.65" xlink:href="#linear-gradient"/>
    <linearGradient id="linear-gradient-17" x1="163.11" y1="996.96" x2="1787.86" y2="985.27" xlink:href="#linear-gradient"/>
    <linearGradient id="linear-gradient-18" x1="162.85" y1="961.29" x2="1787.61" y2="949.6" xlink:href="#linear-gradient"/>
    <linearGradient id="linear-gradient-19" x1="163.46" y1="1046.05" x2="1788.22" y2="1034.36" xlink:href="#linear-gradient"/>
    <linearGradient id="linear-gradient-20" x1="163.14" y1="1000.89" x2="1787.89" y2="989.2" xlink:href="#linear-gradient"/>
    <linearGradient id="linear-gradient-21" x1="163.16" y1="1004.37" x2="1787.92" y2="992.68" xlink:href="#linear-gradient"/>
    <linearGradient id="linear-gradient-22" x1="163.15" y1="1003.19" x2="1787.91" y2="991.5" xlink:href="#linear-gradient"/>
    <linearGradient id="linear-gradient-23" x1="163.17" y1="1005.37" x2="1787.92" y2="993.68" xlink:href="#linear-gradient"/>
    <linearGradient id="linear-gradient-24" x1="163.18" y1="1006.59" x2="1787.93" y2="994.91" xlink:href="#linear-gradient"/>
    <linearGradient id="linear-gradient-25" x1="163.19" y1="1008.83" x2="1787.95" y2="997.14" xlink:href="#linear-gradient"/>
    <linearGradient id="linear-gradient-26" x1="163.18" y1="1007.64" x2="1787.94" y2="995.95" xlink:href="#linear-gradient"/>
    <linearGradient id="linear-gradient-27" x1="163.2" y1="1010.05" x2="1787.96" y2="998.36" xlink:href="#linear-gradient"/>
    <linearGradient id="linear-gradient-28" x1="163.21" y1="1011.92" x2="1787.97" y2="1000.23" xlink:href="#linear-gradient"/>
    <linearGradient id="linear-gradient-29" x1="163.21" y1="1010.95" x2="1787.96" y2="999.26" xlink:href="#linear-gradient"/>
    <linearGradient id="linear-gradient-30" x1="164.04" y1="1126.36" x2="1788.79" y2="1114.67" xlink:href="#linear-gradient"/>
    <linearGradient id="linear-gradient-31" x1="164.04" y1="1126.69" x2="1788.8" y2="1115" xlink:href="#linear-gradient"/>
    <linearGradient id="linear-gradient-32" x1="164.04" y1="1126.86" x2="1788.8" y2="1115.17" xlink:href="#linear-gradient"/>
    <linearGradient id="linear-gradient-33" x1="164.04" y1="1127.23" x2="1788.8" y2="1115.54" xlink:href="#linear-gradient"/>
    <linearGradient id="linear-gradient-34" x1="164.05" y1="1127.47" x2="1788.8" y2="1115.78" xlink:href="#linear-gradient"/>
    <linearGradient id="linear-gradient-35" x1="164.05" y1="1127.77" x2="1788.8" y2="1116.08" xlink:href="#linear-gradient"/>
    <linearGradient id="linear-gradient-36" x1="164.05" y1="1128" x2="1788.81" y2="1116.31" xlink:href="#linear-gradient"/>
    <linearGradient id="linear-gradient-37" x1="164.05" y1="1128.25" x2="1788.81" y2="1116.56" xlink:href="#linear-gradient"/>
    <linearGradient id="linear-gradient-38" x1="164.05" y1="1128.43" x2="1788.81" y2="1116.74" xlink:href="#linear-gradient"/>
    <linearGradient id="linear-gradient-39" x1="164.06" y1="1128.82" x2="1788.81" y2="1117.13" xlink:href="#linear-gradient"/>
    <linearGradient id="linear-gradient-40" x1="164.06" y1="1129.16" x2="1788.81" y2="1117.47" xlink:href="#linear-gradient"/>
    <linearGradient id="linear-gradient-41" x1="164.06" y1="1129.45" x2="1788.82" y2="1117.76" xlink:href="#linear-gradient"/>
    <linearGradient id="linear-gradient-42" x1="164.06" y1="1129.82" x2="1788.82" y2="1118.13" xlink:href="#linear-gradient"/>
    <linearGradient id="linear-gradient-43" x1="164.06" y1="1130.08" x2="1788.82" y2="1118.39" xlink:href="#linear-gradient"/>
    <linearGradient id="linear-gradient-44" x1="164.07" y1="1130.28" x2="1788.82" y2="1118.59" xlink:href="#linear-gradient"/>
    <linearGradient id="linear-gradient-45" x1="164.07" y1="1130.67" x2="1788.83" y2="1118.98" xlink:href="#linear-gradient"/>
    <linearGradient id="linear-gradient-46" x1="164.07" y1="1130.89" x2="1788.83" y2="1119.2" xlink:href="#linear-gradient"/>
    <linearGradient id="linear-gradient-47" x1="164.17" y1="1144.99" x2="1788.93" y2="1133.3" xlink:href="#linear-gradient"/>
    <linearGradient id="linear-gradient-48" x1="164.07" y1="1131.38" x2="1788.83" y2="1119.69" xlink:href="#linear-gradient"/>
    <linearGradient id="linear-gradient-49" x1="164.08" y1="1131.7" x2="1788.83" y2="1120.01" xlink:href="#linear-gradient"/>
    <linearGradient id="linear-gradient-50" x1="164.08" y1="1131.97" x2="1788.83" y2="1120.28" xlink:href="#linear-gradient"/>
    <linearGradient id="linear-gradient-51" x1="164.08" y1="1132.17" x2="1788.84" y2="1120.48" xlink:href="#linear-gradient"/>
    <linearGradient id="linear-gradient-52" x1="164.08" y1="1132.48" x2="1788.84" y2="1120.79" xlink:href="#linear-gradient"/>
    <linearGradient id="linear-gradient-53" x1="164.08" y1="1132.75" x2="1788.84" y2="1121.06" xlink:href="#linear-gradient"/>
    <linearGradient id="linear-gradient-54" x1="164.09" y1="1132.97" x2="1788.84" y2="1121.28" xlink:href="#linear-gradient"/>
    <linearGradient id="linear-gradient-55" x1="164.09" y1="1133.27" x2="1788.84" y2="1121.58" xlink:href="#linear-gradient"/>
    <linearGradient id="linear-gradient-56" x1="164.09" y1="1133.44" x2="1788.85" y2="1121.76" xlink:href="#linear-gradient"/>
    <linearGradient id="linear-gradient-57" x1="164.09" y1="1133.88" x2="1788.85" y2="1122.19" xlink:href="#linear-gradient"/>
    <linearGradient id="linear-gradient-58" x1="164.09" y1="1134.21" x2="1788.85" y2="1122.52" xlink:href="#linear-gradient"/>
    <linearGradient id="linear-gradient-59" x1="164.1" y1="1134.44" x2="1788.85" y2="1122.75" xlink:href="#linear-gradient"/>
    <linearGradient id="linear-gradient-60" x1="164.1" y1="1134.74" x2="1788.85" y2="1123.05" xlink:href="#linear-gradient"/>
    <linearGradient id="linear-gradient-61" x1="164.1" y1="1134.99" x2="1788.86" y2="1123.3" xlink:href="#linear-gradient"/>
    <linearGradient id="linear-gradient-62" x1="164.1" y1="1135.29" x2="1788.86" y2="1123.6" xlink:href="#linear-gradient"/>
    <linearGradient id="linear-gradient-63" x1="164.1" y1="1135.55" x2="1788.86" y2="1123.86" xlink:href="#linear-gradient"/>
    <linearGradient id="linear-gradient-64" x1="164.11" y1="1135.77" x2="1788.86" y2="1124.09" xlink:href="#linear-gradient"/>
  </defs>
  <g>
    <path class="cls-9" d="M180.79,1013.09c5.48-.16,4.54-8.45-.63-7.82-4.38.55-4.22,7.98.63,7.82Z"/>
    <path class="cls-8" d="M174.53,1024.51c0-2.58-2.11-4.69-4.69-4.69s-4.77,2.11-4.77,4.69,2.11,4.77,4.77,4.77,4.69-2.11,4.69-4.77Z"/>
    <path class="cls-7" d="M165.06,1002.45c-2.5,0-4.54,2.03-4.54,4.54s2.03,4.54,4.54,4.54,4.54-2.03,4.54-4.54-2.03-4.54-4.54-4.54Z"/>
    <path class="cls-6" d="M175.62,1044.07c2.35,0,4.22-1.96,4.22-4.3s-1.88-4.22-4.22-4.22-4.3,1.88-4.3,4.22,1.96,4.3,4.3,4.3Z"/>
    <path class="cls-3" d="M173.43,989.23c-6.1.08-4.69,10.72,1.88,8.06,3.99-1.64,2.42-8.14-1.88-8.06Z"/>
    <path class="cls-4" d="M158.34,1042.19c6.34-.94,5.71-11.11-1.41-10.17-6.57.94-5.79,11.26,1.41,10.17Z"/>
    <path class="cls-2" d="M312.43,973.04c0-9.54-6.34-14.7-15.1-14.7h-92.07v30.19h92.07c8.76,0,15.1-5.94,15.1-15.49Z"/>
    <path class="cls-1" d="M205.27,1091h92.07c8.76,0,15.1-6.02,15.1-15.57s-6.34-15.02-15.1-15.02h-92.07v30.59Z"/>
    <path class="cls-5" d="M153.8,1014.66c-2.42,0-4.38,2.03-4.38,4.46s1.96,4.38,4.38,4.38,4.46-1.96,4.46-4.38-2.03-4.46-4.46-4.46Z"/>
    <path class="cls-20" d="M198.46,981.1c4.3-.94,3.28-8.29-1.8-7.27-4.46.86-3.36,8.45,1.8,7.27Z"/>
    <path class="cls-21" d="M198.31,1009.18c-1.96,0-3.52,1.56-3.52,3.52s1.57,3.52,3.52,3.52,3.52-1.56,3.52-3.52-1.56-3.52-3.52-3.52Z"/>
    <path class="cls-22" d="M127.28,1025.92c-1.05,0-1.99.43-2.78,1.05v7.12c.79.62,1.73,1.05,2.78,1.05,2.58,0,4.62-2.11,4.62-4.61s-2.03-4.62-4.62-4.62Z"/>
    <path class="cls-23" d="M196.66,1034.37c-2.35,0-4.22,1.88-4.22,4.15s1.88,4.22,4.22,4.22,4.15-1.88,4.15-4.22-1.88-4.15-4.15-4.15Z"/>
    <path class="cls-25" d="M182.51,978.13c-3.6.86-3.6,7.28.08,8.37,7.2,2.27,8.76-10.4-.08-8.37Z"/>
    <path class="cls-36" d="M144.1,1034.99c5.48-2.19,3.05-10.01-2.5-9.23-6.18.86-4.93,12.2,2.5,9.23Z"/>
    <path class="cls-37" d="M186.1,1021.54c-1.96,0-3.6,1.64-3.6,3.68s1.64,3.6,3.6,3.6,3.68-1.64,3.68-3.6-1.64-3.68-3.68-3.68Z"/>
    <path class="cls-38" d="M189.31,1001.05c5.01,2.11,8.84-3.83,5.32-7.51-5.09-5.32-11.65,4.85-5.32,7.51Z"/>
    <path class="cls-39" d="M201.2,961.07c0-1.96-1.64-3.6-3.6-3.6s-3.52,1.64-3.52,3.6,1.56,3.52,3.52,3.52,3.6-1.56,3.6-3.52Z"/>
    <path class="cls-24" d="M140.58,1050.4c4.69-2.97,1.25-10.01-3.75-9.31-7.67,1.17-3.44,14,3.75,9.31Z"/>
    <path class="cls-27" d="M355.27,837.41H124.5v109.77c1.13.68,1.93,1.86,1.93,3.27s-.8,2.6-1.93,3.27v25.39c.47-.47,1.02-.84,1.69-.99,1.78-.41,3.31.31,4.45,1.68,2.74,3.29-1.13,8.62-5.66,6.06-.19-.11-.32-.26-.48-.4v22.09s.04.04.04.05c.55,1.17-.23,2.58.55,3.75.39.23,2.97-.94,4.77.7,1.41,1.25.31,2.35.31,3.99.16,8.21,14.63,8.06,14.24-.86-.08-3.05-3.05-5.71-6.1-5.71-1.33,0-1.64.86-2.97-.16-2.11-1.56-2.66-4.85-1.96-7.27-11.26,3.21-11.19-14.39-.47-11.58,3.99,1.1,4.38,4.85,3.99,8.45,3.13-.47,5.63-.94,7.67,1.96,1.8,2.58.47,3.36.78,5.48.86,5.71,12.2,4.85,11.26-3.36-.55-5.09-5.71-3.21-8.68-5.48-4.15-3.13-1.72-5.87-2.89-8.45-.55-1.1-3.68-1.17-5.16-3.91-4.3-7.98,8.13-11.65,10.4-4.54.55,1.72-.23,2.58.39,3.91,3.52,1.09,8.14,1.8,8.61,6.41.16,1.02-.31,1.72-.31,2.66,0,4.62,8.29,2.9,7.35-2.19-.55-2.9-3.05-2.9-3.36-3.83l.16-4.07c-.39-.62-4.3,0-6.02-2.97-3.29-5.63,4.46-10.79,8.37-6.02,1.88,2.27.55,3.36,1.1,5.24.78,2.58,7.82,1.49,7.82-.7,0-.78-2.27-2.27-2.58-3.75-.39-1.49.16-2.9-.55-4.22-.7-.78-2.19-.39-3.21-.7-4.15-1.25-5.87-6.02-2.35-9.07,4.54-3.99,9.78.86,8.68,6.1,2.97-1.33,6.41-2.03,8.84.78,1.49,1.72,1.1,3.99,4.54,3.36,4.22-.7,5.87-5.01,4.93-8.92-.86-3.36-4.15-2.5-5.32-4.15-2.27-3.21,1.1-8.06,4.77-7.51,1.33.16,1.8,1.33,4.07,1.1,7.04-.63,7.98-11.89,1.41-13.61-2.35-.63-4.61,1.96-7.35-.16-5.4-4.22,1.33-12.28,6.73-7.12l1.57,2.35c3.86,4.03,5.64.82,6.34-1.52.58-6.4,2.02-13.6,5.16-20.2,4.62-9.7-4.77-18.64-4.77-18.64,0-4.15,3.37-7.52,7.52-7.52h98.08c56.4,0,90.89,32.15,90.89,87.76,0,18.69-6.34,36.14-16.66,50.06,10.33,14.24,16.66,32.54,16.66,51.94,0,50.24-28.21,81.56-75.23,87.16h123.15v-230.77c0-52.14-42.27-94.42-94.42-94.42ZM175.8,891.89c3.37-.61,5.51,5.33,1.79,6.15-5.61,1.24-5.03-5.57-1.79-6.15ZM178.81,939.06c-6.28.43-6.43-8.78-1.43-9.75,6.66-1.28,8.29,9.27,1.43,9.75ZM174.57,908.81c2.72,0,4.92,2.2,4.92,4.92s-2.2,4.92-4.92,4.92-4.92-2.2-4.92-4.92,2.2-4.92,4.92-4.92ZM163.89,919.06c2.08,0,3.76,1.68,3.76,3.76s-1.68,3.76-3.76,3.76-3.76-1.68-3.76-3.76,1.68-3.76,3.76-3.76ZM158.45,900.22c3.53-.17,3.51,5.44-.07,5.35-2.98-.07-3.01-5.2.07-5.35ZM150.35,917.47c2.48,0,4.48,2.01,4.48,4.48s-2.01,4.48-4.48,4.48-4.48-2.01-4.48-4.48,2.01-4.48,4.48-4.48ZM127.07,920.74c1.73-2.71,5.66.34,3.47,2.88-1.31,1.51-5.27-.06-3.47-2.88ZM127.07,940.29c0-2.21,1.79-3.99,4-3.99s4,1.79,4,3.99-1.79,4-4,4-4-1.79-4-4ZM134.14,973.36c-2.69,0-4.88-2.18-4.88-4.88s2.18-4.88,4.88-4.88,4.88,2.18,4.88,4.88-2.18,4.88-4.88,4.88ZM138.1,956.97c-3.25,2.74-7.14-2.43-4.2-4.79,2.97-2.39,7.15,2.3,4.2,4.79ZM137.43,907.67c-2.3,0-4.16-1.86-4.16-4.16s1.86-4.16,4.16-4.16,4.16,1.86,4.16,4.16-1.86,4.16-4.16,4.16ZM143.53,930.88c5.21-.76,6.59,6.66,1.77,7.72-5.44,1.2-6.79-7-1.77-7.72ZM142.86,951.71c0-2.39,1.93-4.32,4.32-4.32s4.32,1.93,4.32,4.32-1.93,4.32-4.32,4.32-4.32-1.93-4.32-4.32ZM151.54,971.15c-2.83,0-5.13-2.3-5.13-5.13s2.3-5.13,5.13-5.13,5.13,2.3,5.13,5.13-2.3,5.13-5.13,5.13ZM156.3,948.4c-2.54,0-4.6-2.06-4.6-4.6s2.06-4.6,4.6-4.6,4.61,2.06,4.61,4.6-2.06,4.6-4.61,4.6ZM165.94,957.84c-3.29,3.01-8.55-1.59-5.26-5.26,3.19-3.56,8.86,1.97,5.26,5.26ZM167.92,939.92c-1.48,0-2.68-1.2-2.68-2.68s1.2-2.68,2.68-2.68,2.68,1.2,2.68,2.68-1.2,2.68-2.68,2.68ZM175.45,953.61c-2.46,0-4.45-1.99-4.45-4.45s1.99-4.45,4.45-4.45,4.45,1.99,4.45,4.45-1.99,4.45-4.45,4.45ZM184.16,963.67c-2.66,2.3-6.39-1.56-3.8-4.39,2.81-3.07,6.85,1.75,3.8,4.39ZM188.68,945.35c0,1.51-1.23,2.74-2.74,2.74s-2.74-1.23-2.74-2.74,1.23-2.74,2.74-2.74,2.74,1.23,2.74,2.74ZM184.45,928.36c-3-.69-2.68-6.7,1.48-6.81,4.69-.13,4.84,8.26-1.48,6.81ZM196.16,922.15c-2.46.36-3.58-3.71-.67-4.28,2.79-.55,3.42,3.88.67,4.28ZM194.41,911.83c-2.56,0-4.63-2.07-4.63-4.63s2.07-4.63,4.63-4.63,4.63,2.07,4.63,4.63-2.07,4.63-4.63,4.63Z"/>
  </g>
  <g>
    <g>
      <path class="cls-26" d="M812.7,1038.6v43.14h-119.17v-9.15c9.91-10.29,15.38-24.83,15.38-42.63,0-10.7-2.87-21.34-8.2-30.47,5.33-8.91,8.2-19.18,8.2-29.45,0-17.74-5.47-32.2-15.38-42.47v-9.07h54.57v120.1h64.6Z"/>
      <path class="cls-28" d="M700.77,970.04c0-32.64-20.28-51.54-53.39-51.54h-116.61v163.24h116.61c33.11,0,53.39-19.12,53.39-51.78,0-11.41-3.72-22.15-9.78-30.53,6.06-8.18,9.78-18.43,9.78-29.39ZM639.45,1039.07h-54.1v-17.96h54.1c5.13,0,8.87,3.25,8.87,8.85s-3.74,9.11-8.87,9.11ZM639.45,978.91h-54.1v-17.74h54.1c5.13,0,8.87,3.03,8.87,8.62s-3.74,9.11-8.87,9.11Z"/>
      <polygon class="cls-29" points="875.39 961.42 875.39 978.44 964.94 978.44 964.94 1021.58 875.39 1021.58 875.39 1038.83 964.94 1038.83 964.94 1081.74 820.84 1081.74 820.84 918.5 964.94 918.5 964.94 961.42 875.39 961.42"/>
      <polygon class="cls-45" points="1150.66 918.5 1150.66 1081.74 1096.09 1081.74 1031.49 999.65 1029.62 999.65 1029.62 1081.74 975.05 1081.74 975.05 918.5 1029.62 918.5 1094.46 1003.38 1096.09 1003.38 1096.09 918.5 1150.66 918.5"/>
      <path class="cls-31" d="M1356.5,961.42v17.02h89.55v43.14h-89.55v17.25h89.55v42.92h-144.13v-5.63c4.54-2.83,8.85-6.02,12.85-9.56,19.34-17.17,29.98-41.17,29.98-67.59s-9.46-48.47-26.67-64.84c-4.88-4.66-10.33-8.68-16.17-12.04v-3.58h144.13v42.92h-89.55Z"/>
      <path class="cls-46" d="M1258.28,918.5h-99.11v163.24h97.24c34.29,0,80.22-29.15,80.22-82.78,0-49.91-38.24-80.46-78.35-80.46ZM1241.72,1038.6h-27.99v-76.96h26.12c25.18,0,41.74,10.72,41.74,37.08,0,24.49-17.02,39.89-39.87,39.89Z"/>
      <path class="cls-44" d="M1592.7,999.88c0,30.69,15.05,57.91,38.14,74.71v7.16h-54.57l-64.58-82.09h-1.87v82.09h-54.57v-163.24h54.57l64.82,84.88h1.63v-84.88h54.57v6.87c-23.09,16.76-38.14,43.91-38.14,74.5Z"/>
      <path class="cls-30" d="M1785.95,961.42v17.02h89.55v43.14h-89.55v17.25h89.55v42.92h-144.13v-2.09c7.42-4.29,14.3-9.56,20.34-15.8l5.61-5.76-5.72-5.67-20.24-20.12v-64.23l20.3-20.52,5.59-5.67-5.55-5.72c-6.12-6.3-12.98-11.61-20.34-15.91v-1.75h144.13v42.92h-89.55Z"/>
      <path class="cls-47" d="M1707.39,1019.93l38.48,38.26c-15.38,15.84-37.08,25.87-60.86,25.87-46.41,0-84.19-37.53-84.19-84.19s37.77-83.94,84.19-83.94c24.02,0,45.48,10.03,60.86,25.87l-38.01,38.48c-5.59-6.53-13.75-10.5-22.84-10.5-16.56,0-30.08,13.53-30.08,30.08s13.53,30.33,30.08,30.33c8.85,0,17.02-3.97,22.37-10.27Z"/>
    </g>
    <g>
      <path class="cls-35" d="M537.16,1114.53v23.33h-2.81v-28.51h2.33l18.72,23.77v-23.73h2.81v28.47h-2.61l-18.43-23.33Z"/>
      <path class="cls-33" d="M585.43,1109.35h2.37l11.84,28.51h-2.97l-3.56-8.91h-13.04l-3.57,8.91h-3.01l11.93-28.51ZM592.23,1126.74l-5.64-14.1-5.64,14.1h11.27Z"/>
      <path class="cls-32" d="M632.5,1111.84h-10.16v26.02h-2.81v-26.02h-10.16v-2.49h23.13v2.49Z"/>
      <path class="cls-34" d="M659.6,1138.07c-2.24,0-4.15-.4-5.7-1.21-1.55-.8-2.79-1.88-3.7-3.23-.91-1.35-1.57-2.88-1.99-4.6s-.63-3.48-.63-5.3v-14.37h2.77v14.37c0,1.47.16,2.92.46,4.34.31,1.42.81,2.69,1.51,3.82.7,1.12,1.64,2.02,2.82,2.67,1.17.66,2.65.98,4.42.98s3.33-.34,4.52-1.02c1.19-.68,2.12-1.59,2.81-2.71.68-1.12,1.17-2.39,1.47-3.79.3-1.4.44-2.83.44-4.28v-14.37h2.81v14.37c0,1.9-.21,3.72-.65,5.46-.42,1.74-1.12,3.27-2.07,4.58-.94,1.31-2.18,2.36-3.71,3.13-1.52.78-3.38,1.16-5.58,1.16Z"/>
      <path class="cls-41" d="M689.56,1137.86v-28.51h12.05c1.23,0,2.36.25,3.37.76s1.91,1.2,2.67,2.07c.77.87,1.36,1.84,1.76,2.89.42,1.06.63,2.14.63,3.23,0,1.36-.26,2.65-.79,3.85-.52,1.21-1.26,2.22-2.21,3.05-.95.83-2.07,1.38-3.35,1.65l6.98,11h-3.17l-6.71-10.52h-8.43v10.52h-2.81ZM692.37,1124.85h9.32c1.12,0,2.1-.31,2.93-.92.83-.61,1.47-1.43,1.93-2.43.45-1,.68-2.07.68-3.19s-.27-2.21-.79-3.19c-.53-.98-1.22-1.77-2.09-2.37-.87-.6-1.85-.9-2.91-.9h-9.08v13.01Z"/>
      <path class="cls-40" d="M735.74,1109.35h2.37l11.84,28.51h-2.97l-3.56-8.91h-13.04l-3.57,8.91h-3.01l11.93-28.51ZM742.54,1126.74l-5.64-14.1-5.64,14.1h11.27Z"/>
      <path class="cls-42" d="M765.31,1137.86v-28.51h2.81v26.02h16.46v2.49h-19.27Z"/>
      <path class="cls-48" d="M799.96,1137.86v-28.51h2.81v26.02h16.46v2.49h-19.27Z"/>
      <path class="cls-43" d="M830.23,1109.35l9.32,15.34,9.4-15.34h3.05l-11.04,17.91v10.6h-2.81v-10.68l-11-17.83h3.09Z"/>
      <path class="cls-49" d="M887.5,1137.86v-28.51h11.81c1.23,0,2.37.25,3.39.76,1.03.51,1.92,1.2,2.67,2.07.75.87,1.34,1.84,1.77,2.89.42,1.06.64,2.14.64,3.23,0,1.55-.34,3.02-1.03,4.4-.68,1.38-1.64,2.5-2.87,3.35-1.23.86-2.67,1.28-4.33,1.28h-9.24v10.52h-2.81ZM890.31,1124.85h9.12c1.13,0,2.1-.31,2.93-.92.83-.61,1.48-1.42,1.93-2.41.45-.99.68-2.06.68-3.21s-.27-2.26-.8-3.25c-.54-.99-1.24-1.77-2.11-2.35-.88-.58-1.83-.86-2.87-.86h-8.88v13.01Z"/>
      <path class="cls-11" d="M935.21,1138.07c-2,0-3.82-.4-5.46-1.21-1.64-.8-3.04-1.89-4.22-3.27-1.17-1.38-2.09-2.93-2.73-4.66-.65-1.73-.96-3.5-.96-5.32s.33-3.71,1-5.44c.67-1.73,1.62-3.27,2.84-4.62,1.22-1.35,2.64-2.42,4.28-3.21,1.63-.79,3.4-1.18,5.29-1.18,2.01,0,3.83.41,5.47,1.24,1.63.83,3.03,1.94,4.19,3.33,1.16,1.39,2.07,2.94,2.71,4.66.65,1.71.97,3.47.97,5.26,0,1.9-.34,3.71-1.01,5.44-.67,1.73-1.61,3.27-2.81,4.62-1.21,1.35-2.62,2.42-4.26,3.19-1.64.78-3.4,1.16-5.3,1.16ZM924.65,1123.61c0,1.55.25,3.05.76,4.48s1.24,2.7,2.17,3.82c.94,1.11,2.06,2,3.35,2.65,1.3.66,2.73.98,4.28.98,1.64,0,3.1-.34,4.4-1.02,1.3-.68,2.41-1.59,3.34-2.73.92-1.14,1.63-2.42,2.11-3.84.48-1.42.72-2.86.72-4.34,0-1.55-.25-3.04-.76-4.46-.51-1.42-1.24-2.69-2.19-3.82-.95-1.12-2.07-2.01-3.35-2.65s-2.71-.97-4.26-.97-3.06.34-4.36,1c-1.29.67-2.4,1.57-3.33,2.71-.92,1.14-1.64,2.42-2.13,3.83-.49,1.42-.74,2.87-.74,4.34Z"/>
      <path class="cls-12" d="M974.78,1109.55h2.64l4.02,10.12,4.06-10.12h2.69l-4.98,12.17,5.47,12.89,10.32-25.26h3.05l-12.08,28.51h-2.49l-5.99-14.1-6.02,14.1h-2.45l-12.05-28.51h3.01l10.37,25.26,5.42-12.89-4.98-12.17Z"/>
      <path class="cls-13" d="M1036.45,1135.37v2.49h-19.15v-28.51h18.79v2.49h-15.98v10.28h13.94v2.37h-13.94v10.88h16.34Z"/>
      <path class="cls-10" d="M1053,1137.86v-28.51h12.05c1.23,0,2.36.25,3.37.76s1.91,1.2,2.67,2.07c.77.87,1.36,1.84,1.76,2.89.42,1.06.63,2.14.63,3.23,0,1.36-.26,2.65-.79,3.85-.52,1.21-1.26,2.22-2.21,3.05-.95.83-2.07,1.38-3.35,1.65l6.98,11h-3.17l-6.71-10.52h-8.43v10.52h-2.81ZM1055.81,1124.85h9.32c1.12,0,2.1-.31,2.93-.92.83-.61,1.47-1.43,1.93-2.43.45-1,.68-2.07.68-3.19s-.27-2.21-.79-3.19c-.53-.98-1.22-1.77-2.09-2.37-.87-.6-1.85-.9-2.91-.9h-9.08v13.01Z"/>
      <path class="cls-18" d="M1090.47,1137.86v-28.51h18.72v2.49h-15.91v10.48h13.41v2.33h-13.41v13.21h-2.81Z"/>
      <path class="cls-16" d="M1136.97,1138.07c-2.24,0-4.15-.4-5.7-1.21-1.55-.8-2.79-1.88-3.7-3.23-.91-1.35-1.57-2.88-1.99-4.6s-.63-3.48-.63-5.3v-14.37h2.77v14.37c0,1.47.16,2.92.46,4.34.31,1.42.81,2.69,1.51,3.82.7,1.12,1.64,2.02,2.82,2.67,1.17.66,2.65.98,4.42.98s3.33-.34,4.52-1.02c1.19-.68,2.12-1.59,2.81-2.71.68-1.12,1.17-2.39,1.47-3.79.3-1.4.44-2.83.44-4.28v-14.37h2.81v14.37c0,1.9-.21,3.72-.65,5.46-.42,1.74-1.12,3.27-2.07,4.58-.94,1.31-2.18,2.36-3.71,3.13-1.52.78-3.38,1.16-5.58,1.16Z"/>
      <path class="cls-19" d="M1166.93,1137.86v-28.51h2.81v26.02h16.46v2.49h-19.27Z"/>
      <path class="cls-17" d="M1201.47,1141.12l.68-3.37h-.92v-3.82h2.65v3.82l-1.01,3.37h-1.4Z"/>
      <path class="cls-15" d="M1243.35,1137.86v-28.51h11.81c1.23,0,2.37.25,3.39.76,1.03.51,1.92,1.2,2.67,2.07.75.87,1.34,1.84,1.77,2.89.42,1.06.64,2.14.64,3.23,0,1.55-.34,3.02-1.03,4.4-.68,1.38-1.64,2.5-2.87,3.35-1.23.86-2.67,1.28-4.33,1.28h-9.24v10.52h-2.81ZM1246.16,1124.85h9.12c1.13,0,2.1-.31,2.93-.92.83-.61,1.48-1.42,1.93-2.41.45-.99.68-2.06.68-3.21s-.27-2.26-.8-3.25c-.54-.99-1.24-1.77-2.11-2.35-.88-.58-1.83-.86-2.87-.86h-8.88v13.01Z"/>
      <path class="cls-14" d="M1298.73,1135.37v2.49h-19.15v-28.51h18.79v2.49h-15.98v10.28h13.94v2.37h-13.94v10.88h16.34Z"/>
      <path class="cls-57" d="M1315.27,1137.86v-28.51h12.05c1.23,0,2.36.25,3.37.76s1.91,1.2,2.67,2.07c.77.87,1.36,1.84,1.76,2.89.42,1.06.63,2.14.63,3.23,0,1.36-.26,2.65-.79,3.85-.52,1.21-1.26,2.22-2.21,3.05-.95.83-2.07,1.38-3.35,1.65l6.98,11h-3.17l-6.71-10.52h-8.43v10.52h-2.81ZM1318.08,1124.85h9.32c1.12,0,2.1-.31,2.93-.92.83-.61,1.47-1.43,1.93-2.43.45-1,.68-2.07.68-3.19s-.27-2.21-.79-3.19c-.53-.98-1.22-1.77-2.09-2.37-.87-.6-1.85-.9-2.91-.9h-9.08v13.01Z"/>
      <path class="cls-58" d="M1352.74,1137.86v-28.51h18.72v2.49h-15.91v10.48h13.41v2.33h-13.41v13.21h-2.81Z"/>
      <path class="cls-59" d="M1406.8,1135.37v2.49h-19.15v-28.51h18.79v2.49h-15.98v10.28h13.94v2.37h-13.94v10.88h16.34Z"/>
      <path class="cls-53" d="M1420.9,1123.37c0-1.74.3-3.45.9-5.12.61-1.67,1.48-3.2,2.63-4.58,1.15-1.38,2.57-2.48,4.26-3.29,1.68-.82,3.6-1.22,5.75-1.22,2.54,0,4.71.58,6.52,1.75,1.81,1.16,3.14,2.66,3.99,4.48l-2.21,1.36c-.61-1.26-1.39-2.25-2.33-2.99-.93-.74-1.93-1.27-2.99-1.59-1.05-.32-2.11-.48-3.15-.48-1.71,0-3.22.34-4.54,1.02-1.31.68-2.42,1.59-3.32,2.73-.9,1.14-1.57,2.41-2.02,3.82-.46,1.4-.68,2.83-.68,4.28,0,1.58.27,3.09.8,4.54.54,1.45,1.28,2.73,2.24,3.84.97,1.11,2.1,2,3.4,2.65,1.29.66,2.71.98,4.23.98,1.07,0,2.17-.18,3.3-.56,1.12-.37,2.17-.95,3.15-1.73.98-.78,1.76-1.78,2.35-3.01l2.33,1.21c-.59,1.42-1.5,2.62-2.73,3.61-1.24.99-2.61,1.74-4.12,2.25s-2.99.76-4.43.76c-1.96,0-3.75-.42-5.39-1.27-1.64-.84-3.04-1.97-4.23-3.37-1.19-1.41-2.12-2.99-2.75-4.74-.65-1.75-.96-3.53-.96-5.32Z"/>
      <path class="cls-54" d="M1481.74,1111.84h-10.16v26.02h-2.81v-26.02h-10.16v-2.49h23.13v2.49Z"/>
      <path class="cls-55" d="M1497.24,1137.86v-28.51h2.81v26.02h16.46v2.49h-19.27Z"/>
      <path class="cls-56" d="M1527.51,1109.35l9.32,15.34,9.4-15.34h3.05l-11.04,17.91v10.6h-2.81v-10.68l-11-17.83h3.09Z"/>
      <path class="cls-50" d="M1606.23,1130.52c0,1.42-.36,2.68-1.08,3.79-.72,1.11-1.7,1.98-2.91,2.61-1.22.63-2.55.94-4,.94h-13.45v-28.51h13.74c1.33,0,2.49.35,3.47,1.06.97.71,1.72,1.62,2.24,2.73.53,1.11.79,2.27.79,3.47,0,1.42-.36,2.73-1.09,3.94-.72,1.2-1.73,2.1-3.01,2.69,1.64.48,2.93,1.38,3.88,2.69.95,1.31,1.42,2.84,1.42,4.58ZM1587.59,1111.8v10.52h9.8c.93,0,1.76-.25,2.49-.74.73-.49,1.3-1.14,1.73-1.95.43-.8.65-1.66.65-2.57,0-.96-.2-1.84-.6-2.63-.41-.79-.95-1.43-1.65-1.91-.69-.48-1.48-.72-2.37-.72h-10.04ZM1603.42,1130.03c0-.96-.21-1.85-.65-2.67-.42-.82-1.01-1.48-1.75-1.99-.74-.51-1.57-.76-2.5-.76h-10.93v10.8h10.64c.96,0,1.84-.25,2.61-.76s1.39-1.17,1.87-1.99c.46-.82.7-1.69.7-2.63Z"/>
      <path class="cls-51" d="M1631,1109.35h2.37l11.84,28.51h-2.97l-3.56-8.91h-13.04l-3.57,8.91h-3.01l11.93-28.51ZM1637.8,1126.74l-5.64-14.1-5.64,14.1h11.27Z"/>
      <path class="cls-52" d="M1660.57,1137.86v-28.51h2.81v26.02h16.46v2.49h-19.27Z"/>
      <path class="cls-62" d="M1704.05,1109.35h2.37l11.84,28.51h-2.97l-3.56-8.91h-13.04l-3.57,8.91h-3.01l11.93-28.51ZM1710.85,1126.74l-5.64-14.1-5.64,14.1h11.27Z"/>
      <path class="cls-63" d="M1736.42,1114.53v23.33h-2.81v-28.51h2.33l18.72,23.77v-23.73h2.81v28.47h-2.61l-18.43-23.33Z"/>
      <path class="cls-64" d="M1773.98,1123.37c0-1.74.3-3.45.9-5.12.61-1.67,1.48-3.2,2.63-4.58,1.15-1.38,2.57-2.48,4.26-3.29,1.68-.82,3.6-1.22,5.75-1.22,2.54,0,4.71.58,6.52,1.75,1.81,1.16,3.14,2.66,3.99,4.48l-2.21,1.36c-.61-1.26-1.39-2.25-2.33-2.99-.93-.74-1.93-1.27-2.99-1.59-1.05-.32-2.11-.48-3.15-.48-1.71,0-3.22.34-4.54,1.02-1.31.68-2.42,1.59-3.32,2.73-.9,1.14-1.57,2.41-2.02,3.82-.46,1.4-.68,2.83-.68,4.28,0,1.58.27,3.09.8,4.54.54,1.45,1.28,2.73,2.24,3.84.97,1.11,2.1,2,3.4,2.65,1.29.66,2.71.98,4.23.98,1.07,0,2.17-.18,3.3-.56,1.12-.37,2.17-.95,3.15-1.73.98-.78,1.76-1.78,2.35-3.01l2.33,1.21c-.59,1.42-1.5,2.62-2.73,3.61-1.24.99-2.61,1.74-4.12,2.25s-2.99.76-4.43.76c-1.96,0-3.75-.42-5.39-1.27-1.64-.84-3.04-1.97-4.23-3.37-1.19-1.41-2.12-2.99-2.75-4.74-.65-1.75-.96-3.53-.96-5.32Z"/>
      <path class="cls-60" d="M1833.8,1135.37v2.49h-19.15v-28.51h18.79v2.49h-15.98v10.28h13.94v2.37h-13.94v10.88h16.34Z"/>
      <path class="cls-61" d="M1850.36,1137.86v-28.51h9.68c3.02,0,5.54.64,7.57,1.91,2.02,1.27,3.54,2.99,4.55,5.14,1.02,2.15,1.52,4.55,1.52,7.17,0,2.89-.55,5.41-1.66,7.55-1.11,2.14-2.69,3.8-4.74,4.98-2.05,1.18-4.46,1.77-7.24,1.77h-9.68ZM1870.88,1123.57c0-2.27-.42-4.3-1.27-6.06-.84-1.77-2.07-3.15-3.67-4.15-1.61-1-3.58-1.51-5.9-1.51h-6.87v23.53h6.87c2.35,0,4.33-.52,5.94-1.57,1.61-1.04,2.83-2.46,3.65-4.24.83-1.78,1.25-3.78,1.25-6Z"/>
    </g>
  </g>
</svg>